<svg viewBox="0 0 118 18" xmlns="http://www.w3.org/2000/svg" class="fill-current transition-colors duration-300 w-32 mb-4" data-v-372bf60f=""><g fill-rule="evenodd"><path style="fill: white" d="M11.425 0v7.07H3.55V0H0v18h3.55v-7.556h7.875V18H15V0zM26 0v18h12v-3.32h-8.39v-4.182h8.212V7.205H29.61V3.293H38V0zM49 0v18h10v-3.373h-6.651V0zM90 18h3V0h-3z"></path> <path style="fill: white" d="M75.184 14.735c1.36 0 2.165-.837 2.165-2.132 0-1.134-.755-2.105-2.165-2.105h-4.608v4.237h4.608zm-.126-7.503c1.208 0 1.964-.836 1.964-1.997 0-1.106-.756-1.97-1.964-1.97h-4.482v3.967h4.482zM67 0h8.838c3.198 0 4.835 2.186 4.835 4.588 0 2.267-1.31 3.778-2.896 4.129C79.565 9.013 81 10.876 81 13.142 81 15.841 79.313 18 76.115 18H67V0z" fill-rule="nonzero"></path> <path style="fill: white" d="M104 14.896l8.681-11.523H104V0h13.807v3.077l-8.681 11.55H118V18h-14z"></path></g></svg>
